<?xml version="1.0" standalone="no"?>
<!DOCTYPE svg PUBLIC "-//W3C//DTD SVG 20010904//EN"
 "http://www.w3.org/TR/2001/REC-SVG-20010904/DTD/svg10.dtd">
<svg version="1.0" xmlns="http://www.w3.org/2000/svg"
 width="640.000000pt" height="566.000000pt" viewBox="0 0 640.000000 566.000000"
 preserveAspectRatio="xMidYMid meet">

<g transform="translate(0.000000,566.000000) scale(0.100000,-0.100000)"
fill="#000000" stroke="none">
<path d="M825 5433 c7 -320 17 -1709 21 -2876 1 -543 6 -997 9 -1010 5 -20 4
-20 -9 3 -18 29 -69 187 -190 590 -48 157 -90 295 -96 307 -9 21 -10 21 -52 5
-24 -8 -44 -17 -46 -17 -1 -1 0 -9 3 -17 4 -10 15 -14 28 -12 21 4 21 4 2 -5
-18 -9 -194 -28 -418 -47 l-77 -7 0 -987 0 -988 150 69 c83 38 154 69 159 69
11 0 23 -62 14 -71 -5 -4 -57 -25 -118 -47 -60 -22 -131 -49 -157 -61 l-48
-20 0 -156 0 -155 630 0 c555 0 629 2 624 15 -4 8 -2 15 4 15 5 0 12 -7 16
-15 4 -11 22 -15 76 -15 38 0 70 3 70 6 0 3 -14 25 -30 49 -17 24 -30 45 -30
48 0 15 289 286 327 306 29 16 53 38 62 56 7 17 25 42 39 57 19 21 23 33 19
57 -6 27 -3 33 22 46 16 8 40 29 54 46 26 34 57 35 57 3 0 -22 45 -100 79
-138 26 -29 13 -27 -21 2 -16 14 -18 13 -18 -1 0 -11 -8 -17 -23 -17 -13 0
-32 -9 -41 -19 -10 -11 -28 -22 -42 -25 -13 -4 -24 -11 -24 -17 0 -6 -6 -7
-12 -3 -7 4 -10 4 -6 0 4 -5 3 -19 -2 -31 -6 -17 -4 -33 6 -54 9 -17 18 -31
20 -31 3 0 2 5 -2 12 -5 7 -3 8 5 4 7 -5 60 -10 118 -11 65 -2 109 -8 113 -15
4 -7 32 -10 71 -9 36 1 74 -3 86 -10 12 -6 49 -14 82 -18 33 -3 58 -9 56 -13
-3 -5 4 -6 15 -3 11 3 28 2 37 -2 10 -5 22 -7 26 -6 5 1 6 -8 2 -19 -4 -11 -2
-20 4 -20 6 0 11 8 12 18 0 10 3 12 6 5 7 -18 40 -16 51 3 9 15 31 18 132 17
139 -2 366 7 415 16 72 14 165 13 225 0 25 -6 55 -10 68 -10 13 1 21 -2 19 -7
-3 -4 5 -7 16 -8 12 0 78 -13 147 -27 182 -39 332 -50 590 -44 231 5 362 21
464 57 155 53 172 77 109 142 -44 45 -97 76 -166 94 -43 11 -48 11 -45 -3 2
-9 25 -24 54 -33 65 -22 94 -38 94 -50 0 -7 -6 -7 -17 -1 -38 20 -89 40 -118
45 -21 4 -15 -1 22 -18 57 -28 75 -46 44 -46 -28 0 -101 30 -101 42 0 5 -5 6
-12 2 -17 -11 35 -52 77 -60 22 -4 35 -12 35 -22 0 -12 6 -10 25 8 13 12 23
26 21 29 -2 3 7 7 20 7 15 1 24 -4 24 -12 0 -8 -3 -13 -7 -13 -21 3 -25 -2 -9
-14 16 -12 16 -14 -6 -34 -79 -72 -443 -107 -835 -80 -114 7 -268 38 -287 57
-14 14 43 13 194 -4 126 -15 277 -20 471 -17 121 1 146 11 135 55 -7 27 -8 28
-64 21 -31 -3 -79 -8 -107 -10 -37 -2 -53 -8 -63 -24 -12 -17 -25 -21 -68 -21
-30 0 -54 4 -54 10 0 17 -34 28 -120 39 -92 12 -264 51 -257 58 3 2 42 -3 87
-11 46 -9 121 -18 169 -21 l86 -4 -84 10 c-185 21 -366 72 -366 104 0 6 -7 20
-15 32 l-16 21 -23 -24 -24 -25 25 6 c19 5 27 2 32 -12 3 -10 9 -23 12 -30 6
-14 -36 -29 -45 -15 -3 5 -16 12 -27 16 -16 5 -23 2 -27 -13 -3 -11 0 -22 7
-24 6 -2 8 -8 4 -12 -4 -4 -22 2 -41 14 -19 11 -37 18 -40 14 -4 -3 -9 2 -13
11 -12 31 60 87 144 111 12 3 22 11 22 16 0 14 -48 11 -53 -3 -5 -12 -11 26
-8 45 1 5 -3 6 -9 2 -5 -3 -10 -19 -10 -35 0 -27 -1 -28 -35 -20 -20 5 -38 4
-41 -2 -3 -5 -13 -8 -22 -7 -30 3 -37 -1 -22 -12 11 -8 8 -9 -15 -3 -16 4 -51
6 -77 6 -27 0 -48 4 -48 9 0 6 -7 6 -19 -1 -31 -16 -36 -12 -15 12 29 33 43
71 37 101 -3 16 3 43 16 68 12 23 21 53 19 68 -3 32 20 141 34 158 6 8 6 18 0
29 -7 12 -4 34 10 71 10 30 16 58 13 62 -2 5 3 8 12 7 11 -1 21 15 32 49 12
38 21 49 34 47 29 -5 31 26 3 58 -36 44 -48 96 -36 159 12 62 20 78 57 112 40
37 75 47 193 58 173 16 566 -15 700 -55 38 -11 48 -11 66 1 40 26 54 46 54 78
1 30 39 116 40 89 0 -7 5 -10 11 -7 7 5 8 -4 4 -28 -4 -21 -3 -37 4 -41 7 -5
11 6 12 31 1 34 2 32 9 -15 4 -29 15 -61 24 -70 8 -10 18 -37 22 -60 7 -45 41
-82 55 -60 5 7 16 5 35 -10 47 -33 66 -59 81 -109 l13 -48 -5 60 c-3 33 -16
80 -28 105 l-24 45 141 -3 c78 -1 167 -7 198 -14 45 -8 64 -8 89 2 26 11 32
11 40 -1 11 -18 11 -5 -1 46 -6 26 -5 44 2 52 10 12 5 169 -8 235 -6 29 -33
48 -29 20 1 -9 0 -11 -2 -4 -3 6 -17 12 -31 12 -15 0 -63 2 -107 5 -51 3 -69
1 -49 -4 43 -11 54 -19 54 -42 0 -16 -7 -19 -55 -19 -42 0 -55 -3 -55 -15 0
-11 12 -15 50 -15 30 0 50 -4 50 -11 0 -8 -11 -9 -31 -5 -17 3 -66 6 -108 6
-74 0 -76 1 -77 25 -2 29 -3 28 30 15 37 -14 58 -3 54 29 -4 33 -43 38 -42 5
0 -19 -2 -19 -33 -9 -18 6 -34 13 -37 16 -2 2 -6 41 -9 86 l-6 82 42 34 42 34
23 164 c46 324 72 485 87 538 16 52 17 53 48 48 18 -3 41 -8 53 -12 18 -6 22
0 32 45 7 28 12 78 12 111 0 53 -3 60 -27 76 -16 11 -44 18 -70 17 l-43 -1 0
67 0 67 -39 7 c-22 3 -42 9 -44 14 -6 10 16 149 26 158 15 16 6 34 -18 34 -18
0 -25 -5 -25 -20 0 -20 -7 -20 -276 -20 -268 0 -276 1 -271 19 3 12 -1 22 -10
25 -19 8 -38 -5 -38 -24 0 -9 -11 -16 -25 -18 l-25 -3 3 -282 c1 -155 3 -375
5 -490 2 -202 2 -207 -18 -207 -11 0 -31 7 -43 16 -12 8 -22 14 -23 12 0 -2
-3 -50 -6 -108 -2 -58 -8 -107 -11 -111 -4 -3 -97 -1 -207 3 -235 10 -384 1
-370 -22 3 -5 1 -11 -5 -15 -5 -3 -10 -1 -10 4 0 6 -18 11 -40 11 -22 0 -40
-4 -40 -8 0 -5 10 -8 22 -8 15 1 27 -8 36 -26 10 -22 20 -28 45 -28 39 0 764
-28 935 -36 67 -3 122 -9 122 -14 0 -4 -44 -6 -97 -4 l-98 3 60 -15 c64 -16
92 -35 106 -73 12 -31 2 -62 -19 -59 -9 2 -16 -2 -15 -9 1 -6 -5 -14 -13 -17
-10 -4 -15 0 -13 12 5 43 -35 118 -70 130 -33 12 -36 8 -31 -45 1 -22 -19 -34
-21 -13 -3 35 -2 57 4 67 4 6 2 15 -5 20 -7 4 -114 9 -238 10 -123 1 -245 4
-270 8 -25 4 -65 9 -90 10 -229 14 -294 16 -287 9 4 -4 28 -7 53 -5 l45 3 -6
-33 -6 -32 19 24 c16 19 22 21 35 11 11 -9 17 -10 22 -2 4 6 14 9 23 6 10 -3
107 -8 217 -12 234 -8 231 -8 315 -2 36 3 88 2 115 -2 46 -7 47 -7 13 -9 -27
-1 -38 -6 -38 -16 0 -10 -11 -15 -35 -15 -19 0 -35 5 -35 10 0 6 -27 10 -65 9
l-65 -2 -2 -96 c0 -53 -1 -103 -2 -111 -1 -11 -13 -14 -51 -11 -28 1 -51 4
-53 5 -1 2 2 15 7 30 7 17 7 26 1 26 -6 0 -13 -13 -16 -30 -11 -52 -54 -35
-54 22 0 17 4 19 28 13 20 -5 24 -4 16 5 -7 6 -22 10 -35 8 -21 -3 -24 -8 -21
-39 l3 -36 -93 -7 c-108 -9 -214 -28 -277 -50 -24 -9 -46 -16 -48 -16 -13 0 5
121 23 157 l21 41 -25 12 c-14 6 -22 13 -19 17 4 3 14 0 24 -8 15 -12 16 -12
10 3 -3 10 -2 20 4 24 6 4 6 11 -2 21 -11 12 -14 12 -21 -2 -16 -27 -27 -6
-12 23 19 37 18 48 -6 48 -24 0 -38 -35 -19 -47 11 -6 9 -12 -5 -28 -15 -16
-16 -26 -8 -49 6 -18 6 -35 0 -45 -5 -10 -6 -22 -3 -27 3 -5 0 -7 -7 -5 -20 8
-48 -79 -48 -148 0 -40 -7 -71 -22 -100 -16 -33 -21 -62 -23 -133 -1 -73 -5
-96 -21 -116 -22 -29 -48 -86 -99 -219 l-37 -96 -72 -13 c-39 -6 -165 -14
-281 -16 -225 -4 -361 10 -433 44 -34 16 -38 22 -44 67 -3 28 -7 80 -7 116
l-1 67 -68 1 -68 1 -49 -51 c-28 -28 -72 -68 -100 -89 -27 -20 -85 -71 -128
-113 l-79 -76 39 6 c40 6 43 -4 3 -12 -34 -7 -127 -34 -158 -47 -15 -6 -31
-10 -35 -9 -4 0 -42 -8 -85 -20 -42 -11 -104 -22 -137 -25 -33 -3 -82 -9 -108
-14 -26 -6 -77 -10 -112 -10 -62 0 -65 1 -65 24 0 13 -3 32 -7 42 -5 14 -1 16
26 12 17 -3 34 -1 37 4 3 4 -11 8 -30 8 -31 0 -36 3 -36 23 0 12 -9 180 -19
372 -11 193 -18 351 -18 352 1 1 72 9 157 17 236 24 438 54 444 65 2 3 -2 105
-9 226 -51 879 -84 1503 -91 1713 -5 137 -10 202 -18 202 -21 0 -74 -38 -99
-72 -14 -18 -35 -56 -47 -85 -16 -37 -34 -59 -63 -79 -23 -15 -85 -72 -137
-126 l-96 -99 -39 60 c-28 42 -48 62 -67 66 -24 6 -27 11 -32 68 -3 34 -11
175 -16 312 -6 138 -17 385 -25 550 -8 165 -15 342 -15 393 0 91 0 92 19 75
37 -35 93 -125 88 -143 -4 -15 1 -14 31 6 20 14 42 22 49 20 24 -10 13 12 -37
71 -27 32 -50 65 -50 74 0 9 12 25 28 35 15 9 64 48 108 85 110 92 155 121
177 115 13 -3 15 -1 9 7 -5 7 -73 101 -152 210 -78 109 -144 196 -147 194 -3
-4 92 -144 140 -204 5 -7 7 -13 4 -13 -3 0 -33 38 -67 85 -33 46 -66 87 -73
91 -7 4 -9 4 -5 -1 4 -4 0 -15 -9 -23 -10 -11 -12 -17 -4 -20 21 -7 11 -22
-13 -20 -14 1 -22 6 -20 10 3 4 0 8 -5 8 -6 0 -11 -7 -11 -16 0 -14 -1 -14
-16 0 -8 9 -13 19 -10 24 2 4 1 14 -5 22 -6 10 -9 -11 -9 -62 0 -42 -7 -103
-15 -135 -8 -31 -16 -87 -16 -123 -2 -64 -6 -20 -24 278 -6 91 -9 102 -26 102
-18 0 -19 -9 -14 -227z m540 -1983 c3 -5 2 -10 -4 -10 -5 0 -13 5 -16 10 -3 6
-2 10 4 10 5 0 13 -4 16 -10z m80 0 c3 -5 2 -10 -4 -10 -5 0 -13 5 -16 10 -3
6 -2 10 4 10 5 0 13 -4 16 -10z m3348 -428 c-12 -9 -26 -35 -33 -57 -12 -45
-49 -117 -50 -97 0 18 -23 10 -37 -13 -12 -19 -12 -18 -13 8 0 32 31 97 56
118 16 12 17 12 10 -1 -4 -8 3 -3 16 11 21 24 55 48 68 48 3 1 -5 -7 -17 -17z
m-3465 -9 c-6 -8 -21 -19 -32 -24 -17 -8 -16 -6 4 11 l25 21 -27 -7 c-16 -3
-28 -2 -28 3 0 4 16 8 35 9 28 0 32 -2 23 -13z m-138 -161 c0 -5 -7 -17 -15
-28 -14 -18 -14 -17 -4 9 12 27 19 34 19 19z m-39 -75 c-10 -9 -11 -8 -5 6 3
10 9 15 12 12 3 -3 0 -11 -7 -18z m3523 -4 c-51 -78 -96 -205 -145 -413 -16
-69 -39 -154 -50 -189 -21 -62 -22 -63 -52 -57 -17 3 -32 7 -33 9 -2 1 24 110
56 241 60 246 96 341 148 388 l25 23 -26 -40 c-15 -22 -27 -44 -27 -49 0 -5
-6 -17 -14 -25 -18 -20 -79 -198 -73 -214 2 -7 7 4 12 23 7 35 34 100 44 110
14 12 50 69 71 110 24 48 67 110 77 110 3 0 -3 -12 -13 -27z m-24 -104 c-25
-67 -45 -97 -35 -55 7 34 46 118 52 113 2 -3 -5 -29 -17 -58z m-3183 -301 c-3
-7 -5 -2 -5 12 0 14 2 19 5 13 2 -7 2 -19 0 -25z m-250 -47 c-2 -22 -1 -43 3
-48 9 -10 21 -97 12 -88 -11 10 -40 125 -30 119 4 -3 8 9 8 25 0 17 3 31 6 31
4 0 4 -18 1 -39z m2790 -103 c-2 -24 -4 -5 -4 42 0 47 2 66 4 43 2 -24 2 -62
0 -85z m-2890 -125 c-2 -32 -3 -8 -3 52 0 61 1 87 3 58 2 -29 2 -78 0 -110z
m370 51 c26 -75 57 -215 68 -305 7 -53 6 -57 -16 -62 -13 -3 -29 -1 -35 4 -9
7 -35 6 -84 -4 -85 -18 -108 -13 -116 22 -3 14 -8 32 -10 39 -8 27 -34 258
-34 308 l0 51 93 10 c50 5 96 9 101 8 5 -1 20 -32 33 -71z m33 61 c0 -8 9 -15
20 -15 12 0 20 -7 20 -17 0 -10 3 -42 7 -72 5 -42 3 -52 -7 -46 -9 6 -11 -2
-6 -36 3 -27 -10 2 -34 76 -22 66 -40 121 -40 123 0 1 9 2 20 2 11 0 20 -7 20
-15z m-363 -57 c-3 -7 -5 -2 -5 12 0 14 2 19 5 13 2 -7 2 -19 0 -25z m50 -228
c-4 -17 -34 104 -41 170 -3 25 6 0 19 -55 14 -55 24 -107 22 -115z m3370 13
c-20 -14 -35 -28 -32 -31 3 -3 14 3 25 13 22 20 36 15 27 -10 -4 -8 -17 -15
-29 -15 -15 0 -29 -11 -40 -30 -16 -28 -16 -30 0 -30 11 0 5 -7 -16 -20 -18
-11 -38 -20 -44 -20 -6 0 -20 -7 -30 -17 -14 -13 -18 -13 -18 -2 -1 8 -8 2
-16 -13 -21 -40 -24 -34 -8 18 8 28 10 52 5 62 -12 22 31 56 99 76 30 9 64 23
74 31 11 8 25 15 30 15 6 0 -6 -12 -27 -27z m-570 -5 c-3 -8 -6 -5 -6 6 -1 11
2 17 5 13 3 -3 4 -12 1 -19z m338 -28 c-3 -4 -13 -10 -24 -13 -24 -6 -36 19
-20 40 10 11 15 11 30 -3 10 -9 16 -20 14 -24z m-293 13 c6 -23 -1 -45 -13
-37 -12 7 -12 54 0 54 5 0 11 -8 13 -17z m213 -50 c-6 -88 -16 -125 -29 -114
-6 5 -32 11 -56 14 l-45 4 53 1 c39 2 52 6 52 17 0 12 -19 15 -102 16 -57 1
-95 3 -85 6 11 3 17 14 17 33 0 57 5 60 101 60 53 0 89 4 89 10 0 6 2 10 5 10
2 0 2 -26 0 -57z m-880 10 c-2 -10 -4 -22 -5 -28 -1 -11 -30 24 -30 37 0 4 9
8 19 8 13 0 18 -6 16 -17z m995 -33 c15 -36 10 -43 -30 -44 -20 -1 -30 4 -30
14 0 13 -1 13 -10 0 -5 -8 -10 -25 -10 -38 0 -13 -4 -20 -10 -17 -16 10 -11
51 8 68 10 10 22 14 27 10 4 -5 5 -3 1 4 -6 10 17 32 35 33 4 0 12 -14 19 -30z
m-1043 -12 c-3 -8 -6 -5 -6 6 -1 11 2 17 5 13 3 -3 4 -12 1 -19z m1397 -9 c-3
-5 -10 -7 -15 -3 -5 3 -7 10 -3 15 3 5 10 7 15 3 5 -3 7 -10 3 -15z m-3514
-75 c0 -3 -6 -4 -14 -1 -8 3 -29 2 -45 -3 -28 -8 -31 -7 -31 15 0 18 6 24 28
27 24 3 62 -20 62 -38z m3267 -106 c-2 -29 -3 -8 -3 47 0 55 1 79 3 53 2 -26
2 -71 0 -100z m-3383 85 c-10 -7 -27 -13 -38 -12 -17 0 -16 2 7 11 18 6 27 17
27 31 1 21 1 21 12 3 9 -15 7 -22 -8 -33z m3272 39 c-5 -8 -66 -4 -66 4 0 2
16 4 36 4 19 0 33 -4 30 -8z m204 -8 c0 -2 -11 -4 -25 -4 -14 0 -25 4 -25 9 0
4 11 6 25 3 14 -2 25 -6 25 -8z m-1221 -126 c1 -26 -3 -50 -9 -53 -6 -4 -10
21 -9 67 0 81 17 69 18 -14z m991 72 c0 -5 -4 -10 -9 -10 -6 0 -13 5 -16 10
-3 6 1 10 9 10 9 0 16 -4 16 -10z m110 -35 c0 -25 -4 -45 -10 -45 -5 0 -10 20
-10 45 0 25 5 45 10 45 6 0 10 -20 10 -45z m409 29 c3 -2 0 -21 -5 -42 l-9
-37 -145 -1 c-122 -2 -145 -4 -148 -17 -3 -15 2 -17 88 -30 14 -3 -3 -5 -37
-6 l-62 -1 -6 58 c-4 31 -9 64 -11 73 -4 15 12 16 163 11 93 -2 170 -6 172 -8z
m-1547 -134 c-2 -2 -7 2 -12 10 -12 18 -13 56 -2 101 6 29 8 25 12 -36 3 -38
4 -72 2 -75z m1588 94 c-8 -35 -20 -57 -20 -37 0 25 13 73 20 73 4 0 4 -16 0
-36z m47 4 c-3 -7 -5 -2 -5 12 0 14 2 19 5 13 2 -7 2 -19 0 -25z m102 -30 c1
-10 -3 -18 -9 -18 -5 0 -10 19 -9 43 1 36 2 38 9 17 4 -14 8 -33 9 -42z m-552
5 c-3 -10 -5 -4 -5 12 0 17 2 24 5 18 2 -7 2 -21 0 -30z m13 -49 c0 -8 -4 -12
-10 -9 -5 3 -10 10 -10 16 0 5 5 9 10 9 6 0 10 -7 10 -16z m-1230 -18 c0 -3
-4 -8 -10 -11 -5 -3 -10 -1 -10 4 0 6 5 11 10 11 6 0 10 -2 10 -4z m1508 -3
c-21 -2 -57 -2 -80 0 -24 2 -7 4 37 4 44 0 63 -2 43 -4z m-218 -23 c8 -5 11
-10 5 -10 -5 0 -17 5 -25 10 -8 5 -10 10 -5 10 6 0 17 -5 25 -10z m-1398 -380
c-20 -43 -38 -78 -40 -76 -4 5 65 156 72 156 2 0 -12 -36 -32 -80z m51 55 c-3
-9 -8 -14 -10 -11 -3 3 -2 9 2 15 9 16 15 13 8 -4z m-20 -40 c-3 -9 -8 -14
-10 -11 -3 3 -2 9 2 15 9 16 15 13 8 -4z m28 -32 c-12 -20 -14 -14 -5 12 4 9
9 14 11 11 3 -2 0 -13 -6 -23z m-60 -40 c-12 -20 -14 -14 -5 12 4 9 9 14 11
11 3 -2 0 -13 -6 -23z m-20 -50 c-12 -20 -14 -14 -5 12 4 9 9 14 11 11 3 -2 0
-13 -6 -23z m-86 -31 c-22 -72 -55 -221 -55 -253 0 -21 -4 -40 -9 -43 -5 -3
-11 -16 -14 -28 -6 -22 -5 -22 8 -4 14 18 15 16 15 -31 0 -27 -7 -65 -16 -83
-14 -27 -14 -34 -3 -41 8 -5 20 -9 27 -9 9 0 12 -10 10 -27 -3 -28 -3 -28 -90
-31 -76 -3 -88 -1 -88 13 0 12 6 15 20 10 23 -7 105 4 96 13 -4 3 -81 7 -172
8 -129 3 -185 8 -256 26 -84 20 -91 21 -103 5 -15 -21 -14 -21 -59 -2 -32 14
-35 17 -24 35 10 15 9 22 -5 38 -9 10 -17 24 -17 32 0 17 -30 -7 -39 -32 -6
-17 -9 -17 -26 -4 -20 15 -20 15 3 16 12 0 22 5 22 11 0 5 -5 7 -11 3 -7 -4
-7 1 1 16 9 18 9 24 0 30 -7 4 -9 13 -5 20 4 7 4 15 -1 19 -17 12 -35 52 -29
64 4 7 -7 -4 -24 -23 -17 -19 -31 -29 -31 -23 0 6 6 16 14 22 12 10 29 51 21
51 -2 0 -22 -19 -46 -42 l-42 -43 33 43 c18 24 29 46 26 50 -4 3 -10 2 -14 -3
-4 -6 -18 -19 -32 -30 l-25 -20 23 26 c23 26 29 49 13 49 -6 0 -16 -8 -23 -18
-7 -10 -20 -22 -28 -27 -8 -4 -2 6 14 23 32 35 29 57 -4 27 -24 -21 -27 -9 -4
16 9 10 11 20 6 23 -5 3 -15 -1 -22 -9 -7 -8 -18 -15 -24 -15 -6 0 -3 5 7 11
9 5 17 17 17 25 0 8 -4 12 -10 9 -15 -9 -12 5 5 22 11 11 14 25 9 51 l-7 35
26 -24 c21 -19 39 -25 88 -27 41 -2 59 0 54 7 -3 6 2 11 13 11 10 0 22 3 26 8
4 4 12 8 17 8 22 3 23 6 4 15 -13 5 14 6 70 1 127 -10 561 -6 615 6 63 14 62
14 55 -6z m-1005 -5 c-8 -8 -44 -26 -80 -41 -36 -14 -76 -35 -90 -46 -25 -19
-25 -20 -3 -20 12 0 25 -4 28 -10 3 -5 15 -10 27 -10 17 0 18 -2 8 -15 -7 -8
-17 -15 -22 -15 -5 0 -21 -9 -35 -20 -14 -11 -33 -20 -43 -20 -20 0 -66 -38
-62 -52 1 -5 -5 -8 -15 -6 -22 4 -29 42 -11 57 85 68 90 75 74 86 -14 11 -13
15 9 35 14 13 25 29 25 36 0 22 40 36 119 44 42 4 78 8 81 9 2 0 -2 -5 -10
-12z m220 -7 c0 -5 -4 -10 -10 -10 -5 0 -10 5 -10 10 0 6 5 10 10 10 6 0 10
-4 10 -10z m867 -102 c-3 -8 -6 -5 -6 6 -1 11 2 17 5 13 3 -3 4 -12 1 -19z
m-50 -30 c-3 -8 -6 -5 -6 6 -1 11 2 17 5 13 3 -3 4 -12 1 -19z m40 -10 c-3 -8
-6 -5 -6 6 -1 11 2 17 5 13 3 -3 4 -12 1 -19z m-50 -40 c-3 -7 -5 -2 -5 12 0
14 2 19 5 13 2 -7 2 -19 0 -25z m-2272 -2 c0 -20 -15 -31 -99 -72 -102 -50
-195 -123 -221 -174 -8 -16 -17 -47 -21 -69 -4 -23 -9 -39 -13 -36 -3 4 -15
40 -27 80 -24 84 -28 76 57 133 50 34 298 161 314 162 6 0 10 -11 10 -24z
m1210 -6 c-16 -16 -26 -32 -23 -35 7 -8 38 5 38 16 0 5 5 9 12 9 6 0 1 -11
-11 -24 -31 -33 -8 -45 27 -15 l27 24 -23 -27 -24 -26 46 -42 c25 -24 46 -47
46 -54 0 -6 -34 23 -76 64 -68 68 -76 73 -88 58 -12 -17 -26 -15 -26 3 0 8 88
79 98 79 3 0 -7 -13 -23 -30z m1102 8 c-3 -8 -6 -5 -6 6 -1 11 2 17 5 13 3 -3
4 -12 1 -19z m-50 -50 c-3 -7 -5 -2 -5 12 0 14 2 19 5 13 2 -7 2 -19 0 -25z
m40 -10 c-3 -7 -5 -2 -5 12 0 14 2 19 5 13 2 -7 2 -19 0 -25z m-1277 -17 c0
-6 -4 -13 -10 -16 -5 -3 -10 1 -10 9 0 9 5 16 10 16 6 0 10 -4 10 -9z m379
-31 c-18 -22 -34 -40 -37 -40 -5 0 12 24 42 58 33 37 29 25 -5 -18z m848 -2
c-3 -7 -5 -2 -5 12 0 14 2 19 5 13 2 -7 2 -19 0 -25z m40 -15 c-3 -10 -5 -4
-5 12 0 17 2 24 5 18 2 -7 2 -21 0 -30z m-847 14 c0 -2 -10 -12 -22 -23 l-23
-19 19 23 c18 21 26 27 26 19z m837 -104 c-3 -10 -5 -2 -5 17 0 19 2 27 5 18
2 -10 2 -26 0 -35z m-34 7 c3 -11 1 -20 -4 -20 -5 0 -9 9 -9 20 0 11 2 20 4
20 2 0 6 -9 9 -20z m-797 -71 c54 -43 54 -42 9 -35 -42 8 -69 31 -58 50 4 6
-13 -4 -37 -23 l-45 -35 34 37 c19 20 40 37 47 37 6 0 29 -14 50 -31z m758 0
c-10 -16 -24 -9 -24 12 0 18 2 19 15 9 8 -7 12 -16 9 -21z m-1396 -50 c3 -15
-45 -45 -56 -34 -3 3 0 5 8 5 10 0 10 3 0 15 -6 8 -9 19 -5 25 10 16 49 8 53
-11z m1207 -19 c-3 -5 -30 -10 -58 -9 -41 1 -47 3 -27 9 37 12 92 12 85 0z
m611 -128 c18 -11 18 -11 -4 -12 -21 0 -82 25 -82 34 0 7 66 -11 86 -22z"/>
<path d="M4526 2503 c-6 -14 -5 -15 5 -6 7 7 10 15 7 18 -3 3 -9 -2 -12 -12z"/>
<path d="M2134 964 c3 -9 6 -18 6 -20 0 -3 4 -3 10 1 11 7 2 35 -12 35 -6 0
-7 -7 -4 -16z"/>
<path d="M2170 960 c0 -5 5 -10 11 -10 5 0 7 5 4 10 -3 6 -8 10 -11 10 -2 0
-4 -4 -4 -10z"/>
<path d="M2210 920 c0 -5 10 -10 23 -10 18 0 19 2 7 10 -19 13 -30 13 -30 0z"/>
<path d="M2169 877 c22 -27 48 -39 57 -25 4 6 3 8 -3 5 -6 -4 -24 3 -39 15
-20 16 -25 17 -15 5z"/>
<path d="M2491 776 c-7 -8 -8 -17 -3 -20 6 -3 13 1 16 10 9 23 2 28 -13 10z"/>
<path d="M2531 762 c-13 -25 -14 -32 -2 -32 9 0 23 41 16 48 -2 2 -8 -5 -14
-16z"/>
<path d="M2577 752 c-19 -20 -22 -32 -9 -32 5 0 14 11 20 25 14 30 11 31 -11
7z"/>
<path d="M2582 670 c-28 -49 -52 -91 -52 -94 0 -2 8 -7 17 -10 10 -4 14 -4 11
0 -4 4 -2 16 4 28 7 11 11 24 10 28 -1 3 14 32 33 64 31 51 41 74 32 74 -1 0
-26 -40 -55 -90z"/>
<path d="M2422 728 c-14 -14 -16 -28 -3 -28 9 0 24 30 18 36 -2 2 -9 -2 -15
-8z"/>
<path d="M2487 729 c7 -7 15 -10 18 -7 3 3 -2 9 -12 12 -14 6 -15 5 -6 -5z"/>
<path d="M2660 719 c-7 -11 -10 -23 -7 -25 2 -2 9 7 15 21 14 30 7 33 -8 4z"/>
<path d="M2700 709 c-7 -11 -10 -23 -7 -25 2 -2 9 7 15 21 14 30 7 33 -8 4z"/>
<path d="M2733 689 c-19 -34 -19 -39 -5 -39 15 0 15 -2 2 -10 -11 -7 -11 -10
-2 -10 17 0 62 46 61 62 0 7 -5 3 -11 -9 -6 -13 -15 -23 -19 -23 -15 0 -20 20
-9 41 7 11 10 22 8 24 -2 2 -13 -14 -25 -36z"/>
<path d="M2872 705 c-17 -38 -14 -43 8 -15 21 27 25 40 12 40 -5 0 -14 -11
-20 -25z"/>
<path d="M2913 700 c-6 -16 -8 -30 -4 -30 3 0 12 14 18 30 6 17 8 30 4 30 -3
0 -12 -13 -18 -30z"/>
<path d="M2960 710 c-6 -12 -9 -24 -7 -27 3 -2 11 5 17 17 6 12 9 24 7 27 -3
2 -11 -5 -17 -17z"/>
<path d="M2825 690 c-9 -16 -13 -30 -11 -30 3 0 12 14 21 30 9 17 13 30 11 30
-3 0 -12 -13 -21 -30z"/>
<path d="M2434 695 c-9 -23 4 -48 22 -41 13 5 13 3 -1 -16 -16 -24 -20 -48 -7
-48 11 0 41 75 31 78 -5 2 -9 10 -9 17 0 19 -30 27 -36 10z"/>
<path d="M2640 664 c0 -8 5 -12 10 -9 6 4 8 11 5 16 -9 14 -15 11 -15 -7z"/>
<path d="M2676 654 c-10 -25 1 -29 14 -5 6 12 7 21 1 21 -5 0 -12 -7 -15 -16z"/>
<path d="M2355 650 c3 -5 8 -10 11 -10 2 0 4 5 4 10 0 6 -5 10 -11 10 -5 0 -7
-4 -4 -10z"/>
<path d="M2401 641 c-8 -14 -7 -22 4 -31 9 -7 18 -10 22 -6 3 3 1 6 -6 6 -8 0
-9 5 -1 19 13 24 13 31 0 31 -5 0 -14 -9 -19 -19z"/>
<path d="M2501 625 c-13 -20 -21 -39 -17 -43 9 -8 45 37 46 56 0 7 4 11 9 7 5
-3 12 -1 16 5 3 5 -2 10 -12 10 -10 0 -29 -16 -42 -35z"/>
<path d="M2870 640 c0 -5 5 -10 10 -10 6 0 10 5 10 10 0 6 -4 10 -10 10 -5 0
-10 -4 -10 -10z"/>
<path d="M2588 590 c-11 -19 -13 -32 -7 -36 12 -7 11 -8 26 34 14 40 4 42 -19
2z"/>
<path d="M2637 585 c-9 -19 -15 -35 -13 -35 2 0 13 16 25 35 11 19 17 35 13
35 -5 0 -16 -16 -25 -35z"/>
<path d="M2680 581 c-11 -23 -17 -41 -12 -41 10 0 45 70 38 77 -2 3 -14 -13
-26 -36z"/>
<path d="M2728 579 c-14 -34 -14 -39 -2 -39 8 0 13 4 10 8 -3 5 1 20 9 35 7
15 11 29 7 31 -4 2 -15 -13 -24 -35z"/>
<path d="M2775 580 c-17 -33 -18 -40 -7 -40 5 0 13 16 19 35 14 43 9 45 -12 5z"/>
<path d="M2817 575 c-14 -30 -15 -35 -2 -35 9 0 15 9 15 23 0 13 5 28 12 35 7
7 8 12 2 12 -6 0 -18 -16 -27 -35z"/>
<path d="M2863 575 c-6 -19 -8 -35 -3 -35 4 0 10 8 13 18 2 9 8 25 12 35 4 9
3 17 -2 17 -5 0 -14 -16 -20 -35z"/>
<path d="M2917 592 c-2 -9 -8 -25 -12 -34 -4 -11 -3 -18 4 -18 6 0 11 8 11 18
0 10 5 23 11 29 7 7 7 13 1 17 -5 3 -12 -2 -15 -12z"/>
<path d="M2953 570 c-9 -25 -9 -30 3 -30 9 0 14 11 14 30 0 17 -1 30 -3 30 -1
0 -8 -13 -14 -30z"/>
<path d="M975 5650 c4 -6 11 -8 16 -5 14 9 11 15 -7 15 -8 0 -12 -5 -9 -10z"/>
<path d="M1910 5652 c0 -6 14 -40 30 -78 35 -77 35 -94 1 -29 -13 25 -28 42
-32 39 -5 -3 -7 -10 -4 -15 3 -5 -1 -6 -9 -3 -26 10 -18 -13 11 -34 20 -15 27
-28 25 -48 -1 -18 5 -32 18 -41 11 -8 20 -21 20 -29 0 -8 3 -13 8 -10 4 2 39
-2 77 -9 59 -11 72 -11 84 1 13 12 12 16 -9 34 l-24 21 22 6 c12 3 22 12 22
21 0 8 -2 13 -6 10 -3 -3 -26 2 -52 11 -43 15 -50 23 -85 90 -45 83 -59 90
-23 10 27 -63 44 -129 28 -114 -6 6 -26 46 -45 90 -32 70 -57 105 -57 77z
m210 -180 c0 -14 -37 -30 -50 -22 -9 6 -8 10 6 19 22 12 44 14 44 3z"/>
<path d="M3523 5640 c5 -18 4 -18 -19 -3 -13 8 -24 11 -24 5 0 -6 6 -13 13
-15 7 -3 5 -6 -5 -6 -21 -1 -24 -17 -5 -24 6 -3 2 -6 -10 -6 -12 -1 -25 4 -28
9 -19 31 -82 -11 -77 -52 2 -16 -1 -28 -7 -28 -6 0 -11 -4 -11 -10 0 -5 9 -10
20 -10 13 0 18 5 14 15 -7 18 14 75 28 75 6 0 7 -9 3 -22 -13 -41 -7 -70 18
-92 14 -11 28 -33 31 -47 4 -21 15 -29 45 -37 34 -8 41 -7 44 7 4 15 5 15 6 0
0 -9 8 -19 16 -23 13 -4 15 9 15 89 0 69 -3 95 -12 95 -9 0 -9 3 -2 8 6 4 9
26 6 50 -4 39 -6 42 -34 42 -25 0 -29 -3 -25 -20z"/>
<path d="M4113 5653 c53 -2 141 -2 195 0 53 1 9 3 -98 3 -107 0 -151 -2 -97
-3z"/>
<path d="M4503 5653 c54 -2 139 -2 190 0 51 1 7 3 -98 3 -104 0 -146 -2 -92
-3z"/>
<path d="M4893 5653 c54 -2 139 -2 190 0 51 1 7 3 -98 3 -104 0 -146 -2 -92
-3z"/>
<path d="M5283 5653 c53 -2 141 -2 195 0 53 1 9 3 -98 3 -107 0 -151 -2 -97
-3z"/>
<path d="M5604 5645 c-10 -24 3 -45 27 -45 12 0 28 -8 35 -17 8 -11 13 -13 14
-5 0 6 5 12 11 12 5 0 8 -4 4 -9 -5 -8 23 -31 38 -31 3 0 -4 17 -14 37 -13 25
-16 40 -9 47 20 20 9 26 -45 26 -40 0 -57 -4 -61 -15z"/>
<path d="M6319 5640 c-31 -10 -69 -21 -85 -23 -16 -3 -63 -13 -104 -21 -65
-14 -119 -21 -192 -25 -10 -1 -18 -7 -18 -15 0 -11 7 -13 29 -6 29 8 169 22
249 24 28 1 42 -3 42 -11 0 -14 43 -13 123 2 36 7 37 8 37 51 0 50 0 50 -81
24z"/>
<path d="M3635 5640 c4 -6 78 -9 193 -9 135 2 170 4 127 9 -94 12 -327 12
-320 0z"/>
<path d="M1790 5638 c0 -4 8 -22 19 -40 11 -19 21 -63 25 -107 7 -84 23 -126
48 -126 24 0 40 -19 58 -68 17 -46 44 -59 64 -32 7 10 32 19 61 22 43 5 46 7
30 19 -11 8 -32 14 -48 14 -64 0 -106 22 -145 74 -32 43 -37 59 -38 105 0 32
-5 56 -12 59 -7 2 -12 9 -12 15 -1 13 -50 77 -50 65z"/>
<path d="M3340 5629 c0 -5 5 -7 10 -4 6 3 10 8 10 11 0 2 -4 4 -10 4 -5 0 -10
-5 -10 -11z"/>
<path d="M4055 5629 c59 -12 348 -11 340 1 -4 6 -78 10 -193 9 -127 -1 -174
-4 -147 -10z"/>
<path d="M4410 5630 c0 -6 69 -10 185 -10 102 0 185 3 185 8 0 4 -83 8 -185 9
-118 2 -185 -1 -185 -7z"/>
<path d="M4800 5628 c0 -5 83 -8 185 -8 102 0 185 3 185 8 0 4 -83 7 -185 7
-102 0 -185 -3 -185 -7z"/>
<path d="M5190 5628 c0 -5 86 -8 190 -8 105 0 190 4 190 8 0 4 -85 7 -190 7
-104 0 -190 -3 -190 -7z"/>
<path d="M5744 5625 c-7 -18 3 -35 22 -35 20 0 30 30 13 41 -20 12 -29 11 -35
-6z"/>
<path d="M3321 5568 c0 -32 2 -58 7 -58 4 0 6 19 4 43 -5 70 -10 76 -11 15z"/>
<path d="M3635 5610 c4 -6 78 -10 191 -10 116 0 184 4 184 10 0 6 -70 10 -191
10 -124 0 -188 -3 -184 -10z"/>
<path d="M4020 5613 c0 -13 362 -25 375 -12 5 5 -47 9 -137 9 -80 0 -166 3
-192 6 -28 4 -46 3 -46 -3z"/>
<path d="M4410 5600 c0 -6 68 -10 185 -10 117 0 185 4 185 10 0 6 -68 10 -185
10 -117 0 -185 -4 -185 -10z"/>
<path d="M4800 5600 c0 -6 68 -10 185 -10 117 0 185 4 185 10 0 6 -68 10 -185
10 -117 0 -185 -4 -185 -10z"/>
<path d="M5190 5600 c0 -6 70 -10 190 -10 120 0 190 4 190 10 0 6 -70 10 -190
10 -120 0 -190 -4 -190 -10z"/>
<path d="M5822 5583 c-54 -35 -56 -57 -4 -49 20 3 41 5 45 6 5 0 7 8 5 18 -2
11 3 26 11 35 22 27 -8 22 -57 -10z"/>
<path d="M968 5583 c7 -3 16 -2 19 1 4 3 -2 6 -13 5 -11 0 -14 -3 -6 -6z"/>
<path d="M3710 5579 c129 -11 300 -11 300 1 0 6 -70 9 -192 8 -162 -1 -179 -2
-108 -9z"/>
<path d="M4020 5580 c0 -6 70 -9 193 -8 180 1 185 2 82 8 -171 11 -275 11
-275 0z"/>
<path d="M4450 5569 c67 -11 330 -11 330 1 0 6 -68 10 -187 9 -129 -1 -174 -4
-143 -10z"/>
<path d="M4800 5570 c0 -6 68 -10 185 -10 117 0 185 4 185 10 0 6 -68 10 -185
10 -117 0 -185 -4 -185 -10z"/>
<path d="M5190 5570 c0 -6 68 -10 184 -10 113 0 187 4 191 10 4 7 -60 10 -184
10 -121 0 -191 -4 -191 -10z"/>
<path d="M3630 5560 c0 -6 72 -10 192 -10 105 0 189 2 187 4 -11 9 -379 15
-379 6z"/>
<path d="M3268 5538 c-2 -18 -12 -24 -41 -29 -21 -3 -51 -16 -68 -28 -16 -12
-28 -17 -27 -10 4 17 -30 20 -36 3 -3 -8 1 -14 9 -14 7 0 16 -4 20 -10 8 -12
-15 -48 -35 -54 -8 -3 -1 -4 15 -3 24 2 31 7 33 27 5 38 41 70 86 77 23 4 44
6 49 5 4 -1 7 12 7 28 0 35 -7 40 -12 8z"/>
<path d="M4020 5550 c0 -6 66 -10 191 -10 113 0 188 4 184 9 -8 13 -375 15
-375 1z"/>
<path d="M4410 5548 c0 -5 84 -7 188 -6 187 2 165 5 -66 10 -67 2 -122 0 -122
-4z"/>
<path d="M4883 5543 c53 -2 141 -2 195 0 53 1 9 3 -98 3 -107 0 -151 -2 -97
-3z"/>
<path d="M5283 5543 c53 -2 141 -2 195 0 53 1 9 3 -98 3 -107 0 -151 -2 -97
-3z"/>
<path d="M3635 5530 c4 -6 79 -10 191 -10 121 0 183 3 179 10 -4 6 -79 10
-191 10 -121 0 -183 -3 -179 -10z"/>
<path d="M5617 5521 c-5 -21 20 -51 42 -51 8 0 11 -6 7 -15 -3 -9 0 -15 8 -15
8 0 16 8 20 18 3 9 11 24 17 33 22 29 4 49 -45 49 -35 0 -45 -4 -49 -19z m33
0 c0 -6 -4 -13 -10 -16 -5 -3 -10 1 -10 9 0 9 5 16 10 16 6 0 10 -4 10 -9z"/>
<path d="M4110 5520 c146 -12 280 -11 280 0 0 6 -68 9 -187 8 -167 -1 -177 -2
-93 -8z"/>
<path d="M4410 5520 c0 -6 68 -10 185 -10 117 0 185 4 185 10 0 6 -68 10 -185
10 -117 0 -185 -4 -185 -10z"/>
<path d="M4795 5520 c-4 -7 60 -10 184 -10 121 0 191 4 191 10 0 6 -68 10
-184 10 -113 0 -187 -4 -191 -10z"/>
<path d="M5190 5520 c0 -6 70 -10 190 -10 120 0 190 4 190 10 0 6 -70 10 -190
10 -120 0 -190 -4 -190 -10z"/>
<path d="M6350 5508 c-19 -6 -30 -12 -24 -15 7 -2 27 3 45 11 39 17 29 19 -21
4z"/>
<path d="M3720 5500 c146 -12 290 -11 290 0 0 6 -70 9 -192 8 -169 -1 -181 -2
-98 -8z"/>
<path d="M4020 5501 c0 -8 359 -21 369 -14 12 8 -18 11 -186 16 -102 4 -183 2
-183 -2z"/>
<path d="M5819 5488 c-4 -19 -1 -29 9 -33 8 -3 17 -3 20 0 3 3 0 5 -6 5 -6 0
-12 12 -14 28 l-3 27 -6 -27z"/>
<path d="M4410 5490 c0 -6 68 -10 185 -10 117 0 185 4 185 10 0 6 -68 10 -185
10 -117 0 -185 -4 -185 -10z"/>
<path d="M4795 5490 c-4 -7 60 -10 184 -10 121 0 191 4 191 10 0 6 -68 10
-184 10 -113 0 -187 -4 -191 -10z"/>
<path d="M5185 5490 c4 -6 80 -10 196 -10 119 0 189 4 189 10 0 6 -72 10 -196
10 -127 0 -193 -3 -189 -10z"/>
<path d="M3635 5480 c-4 -7 58 -10 186 -10 106 0 190 2 188 4 -11 9 -368 16
-374 6z"/>
<path d="M6059 5480 c-9 -5 -59 -14 -110 -19 l-94 -9 95 4 c140 6 148 7 143
22 -6 14 -12 15 -34 2z"/>
<path d="M6305 5470 c-44 -10 -97 -21 -117 -24 -21 -4 -44 -14 -53 -22 -18
-19 -20 -48 -2 -41 7 3 13 -3 13 -12 0 -10 -5 -18 -11 -19 -5 0 -79 -4 -162
-8 -84 -4 -153 -11 -153 -16 0 -4 71 -8 158 -8 87 0 162 -3 166 -7 4 -5 16 -9
27 -9 41 -3 32 -8 -25 -13 l-58 -6 25 -27 c15 -16 29 -24 32 -18 8 13 25 3 25
-13 0 -8 -3 -7 -9 2 -7 11 -11 10 -19 -5 -9 -16 -12 -16 -28 -4 -16 13 -17 13
-12 -1 6 -14 -6 -17 -42 -10 -3 1 2 6 10 11 12 8 10 10 -9 10 -17 0 -22 -4
-17 -15 5 -13 -1 -15 -37 -11 -23 2 -34 2 -24 0 19 -6 23 -43 6 -77 -8 -19 -8
-20 3 -7 16 19 79 11 106 -13 10 -10 22 -14 26 -10 4 4 4 0 0 -10 -4 -13 -1
-17 15 -17 13 0 21 -7 22 -17 0 -10 3 -13 5 -6 3 7 12 9 20 6 7 -3 11 -10 8
-15 -4 -6 2 -8 15 -3 12 4 21 2 21 -4 0 -6 9 -11 21 -11 13 0 18 4 13 13 -6 9
-4 9 8 -1 14 -11 17 -10 21 5 2 10 4 7 3 -7 -2 -23 1 -25 34 -22 31 3 36 1 37
-18 1 -12 4 -25 7 -28 13 -12 20 12 24 76 l3 67 -18 -34 c-10 -19 -22 -35 -28
-35 -20 -2 -15 41 9 76 13 20 27 47 31 59 l7 24 -19 -25 c-11 -14 -25 -40 -32
-57 -8 -18 -18 -33 -23 -33 -5 0 -6 -5 -2 -12 4 -7 3 -8 -4 -4 -14 9 7 54 49
106 38 45 39 80 3 80 -17 0 -23 4 -18 13 6 9 4 9 -8 -1 -13 -10 -18 -10 -24
-1 -9 15 23 39 53 39 22 0 23 2 23 95 0 52 -3 94 -7 94 -5 -1 -44 -9 -88 -19z
m-138 -62 c-3 -8 -6 -5 -6 6 -1 11 2 17 5 13 3 -3 4 -12 1 -19z m-27 -132 c0
-11 -19 -15 -25 -6 -3 5 1 10 9 10 9 0 16 -2 16 -4z"/>
<path d="M2168 5451 c-4 -28 -3 -29 31 -24 94 12 103 21 41 41 -58 18 -67 15
-72 -17z"/>
<path d="M4020 5470 c0 -6 68 -9 188 -9 135 2 170 4 127 9 -93 12 -315 12
-315 0z"/>
<path d="M4500 5460 l105 -6 -97 -2 c-58 -1 -98 -6 -98 -12 0 -6 68 -10 185
-10 178 0 185 1 185 20 0 19 -6 20 -192 18 -168 -2 -179 -3 -88 -8z"/>
<path d="M4883 5463 c53 -2 141 -2 195 0 53 1 9 3 -98 3 -107 0 -151 -2 -97
-3z"/>
<path d="M5187 5450 c5 -19 14 -20 192 -20 180 0 187 1 187 20 0 19 -7 20
-192 20 -187 0 -192 -1 -187 -20z m275 -7 c-51 -2 -132 -2 -180 0 -48 1 -6 3
93 3 99 0 138 -2 87 -3z"/>
<path d="M2950 5425 c19 -19 36 -35 39 -35 3 0 -10 16 -29 35 -19 19 -36 35
-39 35 -3 0 10 -16 29 -35z"/>
<path d="M3635 5450 c4 -6 74 -10 191 -10 110 0 183 4 179 9 -3 5 -89 10 -191
11 -126 0 -184 -3 -179 -10z"/>
<path d="M4030 5444 c35 -7 360 -10 360 -2 0 4 -84 7 -187 7 -104 -1 -181 -3
-173 -5z"/>
<path d="M4796 5441 c-5 -8 46 -11 183 -11 105 0 191 3 191 8 0 12 -366 16
-374 3z"/>
<path d="M3070 5430 c0 -5 9 -10 19 -10 11 0 23 5 26 10 4 6 -5 10 -19 10 -14
0 -26 -4 -26 -10z"/>
<path d="M5847 5426 c-4 -10 -5 -21 -2 -24 9 -9 17 6 13 25 -3 17 -4 17 -11
-1z"/>
<path d="M5750 5396 c0 -9 5 -16 10 -16 6 0 10 4 10 9 0 6 -4 13 -10 16 -5 3
-10 -1 -10 -9z"/>
<path d="M4008 5393 c7 -3 16 -2 19 1 4 3 -2 6 -13 5 -11 0 -14 -3 -6 -6z"/>
<path d="M4048 5393 c7 -3 16 -2 19 1 4 3 -2 6 -13 5 -11 0 -14 -3 -6 -6z"/>
<path d="M4138 5393 c34 -2 90 -2 125 0 34 2 6 3 -63 3 -69 0 -97 -1 -62 -3z"/>
<path d="M2140 5381 c0 -5 14 -8 31 -9 17 0 28 2 25 5 -9 9 -56 12 -56 4z"/>
<path d="M5660 5363 c0 -23 -2 -25 -12 -11 -22 26 -49 31 -55 9 -7 -28 -33
-35 -33 -9 0 17 -3 18 -14 9 -15 -13 -27 -13 -1315 10 -581 10 -657 7 -590
-20 14 -5 370 -14 849 -21 944 -13 1240 -13 1240 1 0 5 -4 9 -10 9 -5 0 -10
11 -10 25 0 20 -5 25 -25 25 -20 0 -25 -5 -25 -27z"/>
<path d="M2230 5370 c-15 -5 -18 -8 -8 -9 9 -1 23 -4 32 -7 11 -4 16 -1 16 10
0 17 -3 18 -40 6z"/>
<path d="M3006 5368 c3 -4 11 -5 19 -1 21 7 19 12 -4 10 -11 0 -18 -5 -15 -9z"/>
<path d="M2295 5350 c3 -5 10 -10 16 -10 5 0 9 5 9 10 0 6 -7 10 -16 10 -8 0
-12 -4 -9 -10z"/>
<path d="M2400 5323 c56 -20 404 -29 397 -9 -3 7 -53 11 -163 12 -87 0 -186 3
-219 7 l-60 7 45 -17z"/>
<path d="M5775 5330 c3 -5 10 -10 16 -10 5 0 9 5 9 10 0 6 -7 10 -16 10 -8 0
-12 -4 -9 -10z"/>
<path d="M2590 5260 c8 -5 20 -10 25 -10 6 0 3 5 -5 10 -8 5 -19 10 -25 10 -5
0 -3 -5 5 -10z"/>
<path d="M2640 5242 c8 -5 26 -13 40 -16 17 -5 20 -4 10 2 -8 5 -26 13 -40 16
-17 5 -20 4 -10 -2z"/>
<path d="M1990 5238 c1 -18 30 -83 39 -86 6 -2 4 8 -4 25 -8 15 -15 33 -15 40
0 6 -4 15 -10 18 -5 3 -10 5 -10 3z"/>
<path d="M1343 5207 c7 -12 23 -38 35 -57 l24 -35 -29 33 c-27 31 -63 43 -63
22 0 -5 -5 -10 -11 -10 -6 0 -44 -26 -85 -57 -41 -32 -91 -70 -111 -85 -23
-18 -30 -28 -19 -28 19 0 91 -106 89 -131 -1 -12 22 0 79 40 161 113 203 139
211 134 5 -3 12 -15 17 -27 6 -15 9 -16 9 -5 1 9 -33 64 -74 123 -73 103 -96
130 -72 83z"/>
<path d="M2720 5210 c8 -5 20 -10 25 -10 6 0 3 5 -5 10 -8 5 -19 10 -25 10 -5
0 -3 -5 5 -10z"/>
<path d="M2780 5185 c14 -8 30 -14 35 -14 6 0 -1 6 -15 14 -14 8 -29 14 -35
14 -5 0 1 -6 15 -14z"/>
<path d="M2050 5149 c0 -5 5 -7 10 -4 6 3 10 8 10 11 0 2 -4 4 -10 4 -5 0 -10
-5 -10 -11z"/>
<path d="M5435 5060 c-3 -5 -1 -10 4 -10 6 0 11 5 11 10 0 6 -2 10 -4 10 -3 0
-8 -4 -11 -10z"/>
<path d="M2937 5009 c7 -7 15 -10 18 -7 3 3 -2 9 -12 12 -14 6 -15 5 -6 -5z"/>
<path d="M3600 4973 c0 -19 803 -32 815 -13 4 7 -64 10 -197 10 -112 0 -296 3
-410 7 -136 4 -208 3 -208 -4z"/>
<path d="M6021 4078 c-19 -12 -29 -24 -22 -26 6 -2 23 3 36 12 13 9 31 16 40
16 9 0 13 5 10 10 -9 15 -27 12 -64 -12z"/>
<path d="M6150 4081 c0 -5 9 -7 20 -4 11 3 20 7 20 9 0 2 -9 4 -20 4 -11 0
-20 -4 -20 -9z"/>
<path d="M5955 4060 c-3 -6 1 -7 9 -4 18 7 21 14 7 14 -6 0 -13 -4 -16 -10z"/>
<path d="M3627 4016 c-4 -10 -5 -21 -2 -24 9 -9 17 6 13 25 -3 17 -4 17 -11
-1z"/>
<path d="M5894 3998 c-27 -17 -44 -33 -38 -35 14 -5 81 37 88 55 7 17 7 16
-50 -20z"/>
<path d="M5971 3999 c-11 -31 2 -69 23 -69 6 0 5 5 -2 12 -20 20 -14 28 17 22
37 -8 48 10 27 41 -23 35 -52 32 -65 -6z"/>
<path d="M5739 3927 c-46 -29 -105 -65 -131 -80 -27 -15 -48 -30 -48 -33 0 -6
52 21 102 53 43 27 56 29 38 8 -18 -22 1 -18 30 6 24 20 24 20 3 14 -33 -9
-28 2 8 21 42 21 63 3 29 -24 l-24 -19 33 -5 c34 -5 52 9 30 23 -12 7 -12 12
-1 29 7 11 10 25 7 30 -3 5 3 13 12 19 10 6 13 11 7 11 -5 0 -48 -24 -95 -53z
m71 19 c0 -2 -7 -7 -16 -10 -8 -3 -12 -2 -9 4 6 10 25 14 25 6z"/>
<path d="M3589 3949 c-6 -4 -9 -11 -5 -17 8 -13 46 -3 46 12 0 14 -23 17 -41
5z"/>
<path d="M1950 3936 l-35 -13 49 -31 c28 -18 54 -32 58 -32 4 0 8 -5 8 -11 0
-5 -4 -8 -8 -5 -19 11 -132 32 -142 26 -18 -11 42 -248 90 -355 5 -11 14 -39
20 -62 6 -22 19 -51 29 -64 16 -20 17 -25 4 -38 -27 -27 13 -120 59 -136 9 -3
21 -19 27 -36 5 -16 18 -32 28 -36 29 -10 145 -102 179 -141 l31 -36 -38 -28
c-38 -28 -89 -102 -89 -131 0 -8 15 -36 34 -60 19 -24 45 -63 57 -86 15 -25
38 -48 61 -58 27 -13 35 -22 29 -32 -7 -10 -12 -9 -27 7 -25 25 -110 72 -118
65 -17 -17 3 -46 89 -131 58 -57 95 -101 95 -113 0 -16 -4 -19 -21 -14 -23 8
-22 5 12 -45 14 -20 19 -57 24 -175 7 -153 1 -171 -26 -90 -14 39 -14 36 -17
-84 -1 -68 0 -126 3 -129 3 -4 15 0 26 7 24 14 39 7 21 -11 -11 -11 -39 -15
-114 -17 -21 -1 -38 -5 -38 -10 0 -12 132 -29 270 -35 135 -6 495 6 506 17 12
12 -3 19 -52 25 -85 9 -85 10 -80 265 4 261 29 492 56 522 9 11 20 32 24 47 3
15 29 57 56 93 56 73 67 103 51 134 -10 18 -7 23 26 38 l37 18 -3 64 c-1 35
-7 75 -13 90 -5 14 -9 69 -8 122 2 163 -69 388 -144 459 -23 21 -30 22 -46 12
-16 -10 -24 -10 -41 0 -18 12 -24 9 -50 -20 l-29 -32 -77 65 c-47 41 -85 65
-100 65 -17 0 -23 5 -21 17 2 12 -13 23 -52 39 -49 19 -58 20 -81 8 -32 -16
-37 -27 -45 -109 -6 -61 2 -116 27 -185 10 -26 28 -160 22 -160 -2 0 -15 7
-28 16 -20 13 -25 25 -25 58 -1 61 -29 131 -92 227 -67 101 -171 202 -242 235
-58 27 -147 31 -206 10z m760 -246 c0 -5 -7 -10 -16 -10 -8 0 -12 5 -9 10 3 6
10 10 16 10 5 0 9 -4 9 -10z m-55 -10 c-3 -5 -11 -10 -16 -10 -6 0 -7 5 -4 10
3 6 11 10 16 10 6 0 7 -4 4 -10z m-370 -179 c-3 -6 -11 -11 -17 -11 -6 0 -6 6
2 15 14 17 26 13 15 -4z m-75 -11 c-20 -13 -33 -13 -25 0 3 6 14 10 23 10 15
0 15 -2 2 -10z m477 -450 c3 -14 17 -38 32 -55 14 -16 19 -24 11 -17 -24 21
-34 13 -14 -10 l19 -23 -22 18 c-13 11 -19 26 -16 35 3 10 -2 7 -12 -6 -16
-22 -16 -24 9 -57 15 -20 22 -36 16 -40 -5 -3 -10 -22 -10 -41 0 -19 -4 -34
-9 -34 -5 0 -13 -9 -16 -20 -4 -13 -15 -20 -30 -20 -13 0 -31 -7 -39 -16 -18
-18 -31 -59 -22 -72 6 -10 -23 -26 -31 -18 -3 2 0 19 6 38 6 18 17 56 25 83 8
28 20 64 27 81 11 29 10 36 -15 78 -32 55 -83 91 -103 74 -9 -7 -13 -7 -13 0
0 17 63 76 101 94 34 17 34 17 67 -15 18 -17 35 -43 39 -57z m6 66 c-3 -15
-10 -23 -18 -20 -11 4 -10 10 3 25 21 24 20 24 15 -5z m-296 -158 c-3 -7 -5
-2 -5 12 0 14 2 19 5 13 2 -7 2 -19 0 -25z m363 -43 c13 -14 21 -25 18 -25 -2
0 -15 11 -28 25 -13 14 -21 25 -18 25 2 0 15 -11 28 -25z m33 -105 c10 -16 16
-30 14 -30 -5 0 -56 73 -70 100 -14 25 37 -38 56 -70z m166 -356 c-18 -192
-29 -215 -22 -49 5 129 15 187 30 172 2 -3 -2 -58 -8 -123z m-274 86 c8 -16
35 -41 59 -55 l44 -26 7 -139 c7 -136 1 -295 -15 -375 -4 -22 -8 -35 -9 -30
-1 11 -163 -23 -177 -38 -4 -4 32 -7 79 -7 51 0 87 4 87 10 0 6 5 10 10 10 6
0 10 -7 10 -15 0 -10 -10 -15 -34 -15 -19 0 -37 -4 -41 -10 -4 -6 -15 -6 -30
0 -14 5 -25 6 -25 1 0 -11 -97 -13 -104 -2 -12 19 -17 79 -23 244 -5 165 -5
169 18 193 12 13 26 24 31 24 5 0 25 7 46 16 33 14 35 16 18 26 -13 7 -25 7
-43 -1 -65 -30 -86 10 -35 67 44 49 102 129 102 141 0 19 9 12 25 -19z m213
-142 c-1 -109 -2 -116 -8 -58 -11 98 -11 180 0 180 6 0 9 -46 8 -122z m-19
-242 c14 -273 12 -300 -16 -304 l-23 -3 0 229 c0 126 3 271 7 323 l7 94 7 -69
c4 -38 12 -159 18 -270z m-389 265 c0 -10 7 -24 15 -31 8 -7 15 -17 15 -22 0
-16 -32 -21 -41 -7 -12 20 -11 92 1 84 6 -3 10 -14 10 -24z m18 -187 c4 -73
-14 -62 -20 14 -4 36 -2 52 6 49 6 -2 12 -30 14 -63z m-53 -324 c-3 -5 -11
-10 -16 -10 -6 0 -7 5 -4 10 3 6 11 10 16 10 6 0 7 -4 4 -10z"/>
<path d="M5850 3935 c0 -9 5 -13 10 -10 6 3 10 -1 10 -10 0 -9 -4 -14 -9 -11
-5 3 -11 -3 -14 -13 -7 -27 28 -16 48 16 19 28 19 28 -17 37 -22 5 -28 3 -28
-9z"/>
<path d="M2860 3845 c-7 -8 -8 -15 -2 -15 5 0 15 7 22 15 7 8 8 15 2 15 -5 0
-15 -7 -22 -15z"/>
<path d="M5593 3814 c-35 -20 -63 -40 -63 -44 0 -10 117 57 126 71 8 13 5 12
-63 -27z"/>
<path d="M5692 3810 c23 -32 41 -40 32 -15 -4 8 -1 15 5 15 6 0 11 5 11 11 0
6 -9 8 -20 4 -11 -4 -20 -2 -20 4 0 6 -7 11 -15 11 -13 0 -11 -6 7 -30z"/>
<path d="M3578 3823 c-10 -2 -15 -10 -11 -19 7 -19 16 -18 31 6 12 20 11 21
-20 13z"/>
<path d="M3560 3771 c0 -5 5 -13 10 -16 6 -3 10 -2 10 4 0 5 -4 13 -10 16 -5
3 -10 2 -10 -4z"/>
<path d="M5523 3736 c3 -7 0 -20 -6 -27 -8 -9 -6 -9 7 1 16 13 20 12 32 -5 13
-18 14 -18 14 -1 0 18 -26 45 -44 46 -4 0 -6 -6 -3 -14z"/>
<path d="M2890 3730 c0 -5 5 -10 11 -10 5 0 7 5 4 10 -3 6 -8 10 -11 10 -2 0
-4 -4 -4 -10z"/>
<path d="M1872 3374 c0 -87 3 -144 5 -126 4 31 5 33 18 15 17 -21 19 -59 5
-68 -6 -4 -8 -11 -4 -16 4 -6 14 -3 25 7 18 17 19 16 19 -31 0 -44 12 -57 15
-17 1 9 5 41 9 69 l8 53 -31 -4 c-17 -2 -31 -2 -31 1 0 2 11 26 25 53 23 45
22 52 -2 49 -3 0 -10 6 -15 15 -5 9 -14 16 -21 16 -8 0 -13 23 -15 67 -6 126
-12 77 -10 -83z m15 -56 c-2 -13 -4 -3 -4 22 0 25 2 35 4 23 2 -13 2 -33 0
-45z"/>
<path d="M4901 2625 c-1 -17 -89 -609 -105 -704 l-13 -84 19 26 c19 27 48 37
48 17 0 -5 16 -10 35 -10 32 0 35 2 26 19 -15 27 -4 31 32 13 l32 -16 -25 -6
c-21 -6 -18 -7 18 -11 42 -4 66 4 40 14 -7 2 -10 7 -7 11 4 4 14 0 22 -9 9 -8
29 -15 46 -15 17 0 31 -4 31 -10 0 -5 -9 -10 -19 -10 -18 0 -19 -3 -9 -31 12
-34 40 -37 46 -4 7 38 22 40 22 3 0 -34 -2 -37 -32 -40 -42 -4 -39 -21 4 -29
l33 -6 -32 -2 c-28 -1 -33 -5 -33 -26 0 -22 4 -25 36 -25 27 0 35 -3 31 -14
-4 -10 -1 -13 9 -9 7 3 14 9 14 14 0 5 14 9 30 9 25 0 30 -4 30 -25 0 -14 5
-25 11 -25 7 0 9 10 5 25 -6 25 -6 25 59 25 36 0 65 -4 65 -9 0 -4 -5 -22 -11
-40 l-11 -32 -116 3 c-95 2 -116 0 -121 -12 -2 -9 -10 4 -17 30 l-12 45 0 -80
c0 -71 14 -164 17 -111 1 16 6 17 49 10 26 -5 83 -9 127 -9 44 0 82 -3 85 -7
6 -7 282 -14 383 -9 9 0 28 0 42 0 142 -6 365 1 365 11 0 4 26 3 58 -2 36 -5
67 -5 83 1 17 7 19 10 6 10 -10 1 -45 10 -79 22 -33 11 -67 18 -74 15 -9 -3
-17 9 -24 37 -6 23 -15 56 -21 72 -5 17 -13 64 -18 104 -9 74 -9 75 20 112 16
20 29 41 29 47 0 6 5 12 12 14 6 2 8 10 4 17 -5 8 -25 11 -54 10 l-47 -3 -27
218 c-15 120 -30 221 -33 224 -3 4 -10 0 -15 -8 -7 -11 -12 -11 -23 -2 -12 10
-16 9 -21 -3 -4 -13 -29 -15 -153 -14 -176 1 -261 10 -275 30 -7 11 -11 11
-15 1 -2 -6 -9 -9 -14 -6 -6 3 -16 0 -24 -6 -19 -16 -412 -10 -423 6 -8 12
-76 13 -88 1 -10 -9 -54 -9 -54 1 0 4 7 58 16 120 8 62 13 118 10 125 -2 7 -5
7 -5 2z m-11 -570 c0 -14 -11 -38 -25 -53 -29 -31 -31 -40 -10 -48 8 -4 15
-15 15 -25 0 -14 -7 -19 -25 -19 -24 0 -26 3 -23 39 1 28 7 41 19 44 14 4 17
13 13 46 -3 36 -1 41 16 41 15 0 20 -7 20 -25z m66 -37 c-1 -34 3 -59 12 -70
16 -19 13 -22 -12 -12 -12 5 -16 21 -16 65 0 82 -20 74 -22 -8 l-2 -68 -5 70
c-6 64 -4 71 14 76 30 9 33 4 31 -53z m84 -92 c0 -8 -4 -18 -10 -21 -5 -3 -10
-1 -10 4 0 6 -7 11 -15 11 -8 0 -15 5 -15 10 0 6 11 10 25 10 15 0 25 -6 25
-14z m-156 -30 c-6 -16 -24 -23 -24 -8 0 10 22 33 27 28 2 -2 1 -11 -3 -20z
m196 10 c0 -3 -4 -8 -10 -11 -5 -3 -10 -1 -10 4 0 6 5 11 10 11 6 0 10 -2 10
-4z m124 -48 c3 -13 6 -36 6 -51 0 -25 -3 -28 -27 -25 -22 2 -28 8 -29 28 -1
14 -4 35 -8 48 -7 19 -4 22 22 22 22 0 31 -6 36 -22z m52 -15 l-27 -38 34 38
c38 41 76 49 84 17 3 -10 14 -22 24 -25 12 -4 19 -16 19 -31 0 -23 -2 -24 -80
-24 -44 0 -80 3 -80 8 -1 4 -4 25 -9 48 l-8 40 35 2 35 3 -27 -38z m254 18 c5
-11 10 -33 10 -50 0 -29 -3 -31 -34 -31 -36 0 -46 15 -46 73 0 23 4 27 30 27
19 0 33 -7 40 -19z m300 -9 c0 -11 10 -23 22 -29 12 -5 22 -19 23 -31 2 -22 0
-22 -137 -21 -80 0 -138 5 -138 10 0 6 7 9 16 7 9 -2 21 6 27 17 39 69 32 65
112 65 66 0 75 -2 75 -18z m194 2 c16 -15 16 -40 1 -101 -6 -28 -12 -33 -36
-33 -16 0 -29 1 -29 3 0 1 -9 32 -19 69 -11 36 -17 69 -13 72 12 12 81 5 96
-10z m-104 -99 c0 -14 -4 -25 -10 -25 -11 0 -14 33 -3 43 11 11 13 8 13 -18z
m-692 -12 c-10 -2 -26 -2 -35 0 -10 3 -2 5 17 5 19 0 27 -2 18 -5z m140 0
c-21 -2 -57 -2 -80 0 -24 2 -7 4 37 4 44 0 63 -2 43 -4z m149 1 c-3 -3 -12 -4
-19 -1 -8 3 -5 6 6 6 11 1 17 -2 13 -5z m291 -11 c-32 -2 -84 -2 -115 0 -32 2
-6 3 57 3 63 0 89 -1 58 -3z m257 -3 c3 -5 1 -10 -4 -10 -6 0 -11 5 -11 10 0
6 2 10 4 10 3 0 8 -4 11 -10z m-605 -62 c0 -13 3 -33 6 -44 5 -19 2 -22 -28
-19 -18 1 -32 6 -30 11 1 5 5 24 8 42 7 39 44 47 44 10z m49 -20 c0 -33 -2
-38 -9 -23 -12 28 -12 65 0 65 6 0 10 -19 9 -42z m73 -28 c4 -24 2 -27 -10
-18 -10 9 -16 8 -23 -3 -6 -9 -9 2 -9 35 0 48 1 49 19 32 10 -9 21 -30 23 -46z
m268 55 c0 -3 -7 -21 -15 -40 l-14 -35 -100 2 -100 3 -9 38 -10 37 124 0 c68
0 124 -2 124 -5z m95 -62 c4 -30 5 -56 3 -58 -2 -1 -21 3 -43 10 -22 7 -33 13
-24 14 20 1 34 31 16 31 -7 0 -19 -6 -26 -12 -11 -11 -12 -8 -6 12 19 62 23
68 48 63 22 -4 26 -12 32 -60z m143 10 c7 -32 15 -69 18 -83 4 -15 2 -20 -3
-13 -5 7 -26 13 -46 15 l-38 2 6 41 c13 84 16 95 34 95 13 0 20 -14 29 -57z
m-94 0 c-8 -57 -14 -68 -14 -27 0 16 -3 39 -6 52 -5 16 -2 22 10 22 15 0 16
-7 10 -47z"/>
<path d="M4786 2311 c-4 -6 0 -11 8 -11 9 0 16 -5 16 -11 0 -6 -9 -9 -20 -6
-11 3 -18 1 -14 -4 7 -12 31 -11 40 2 3 6 0 18 -9 26 -10 10 -17 11 -21 4z"/>
<path d="M4751 2294 c0 -11 3 -14 6 -6 3 7 2 16 -1 19 -3 4 -6 -2 -5 -13z"/>
<path d="M4742 2240 c0 -19 2 -27 5 -17 2 9 2 25 0 35 -3 9 -5 1 -5 -18z"/>
<path d="M4780 2245 c7 -9 15 -13 17 -11 7 7 -7 26 -19 26 -6 0 -6 -6 2 -15z"/>
<path d="M4731 2175 c0 -16 -4 -41 -6 -55 l-6 -25 11 25 c6 13 9 38 7 55 l-4
30 -2 -30z"/>
<path d="M3213 2163 c9 -2 25 -2 35 0 9 3 1 5 -18 5 -19 0 -27 -2 -17 -5z"/>
<path d="M3120 2139 c0 -6 7 -26 16 -45 15 -32 19 -34 68 -35 28 -1 66 -3 84
-5 36 -4 72 10 72 27 0 6 -7 9 -15 5 -9 -3 -15 0 -15 9 0 8 5 15 10 15 6 0 10
7 10 15 0 12 -17 15 -92 14 -51 0 -87 -3 -80 -6 17 -7 15 -23 -3 -23 -8 0 -15
6 -15 14 0 8 -7 17 -16 20 -21 8 -24 8 -24 -5z m154 -25 c11 -28 6 -44 -12
-44 -15 0 -18 6 -14 30 5 33 16 39 26 14z"/>
<path d="M4771 2114 c0 -11 3 -14 6 -6 3 7 2 16 -1 19 -3 4 -6 -2 -5 -13z"/>
<path d="M4735 2070 c-4 -6 -1 -18 6 -26 11 -13 9 -14 -12 -9 -19 5 -31 -1
-54 -26 -22 -24 -25 -29 -9 -21 11 6 26 18 33 26 10 11 18 13 31 6 23 -13 33
-13 25 -1 -3 5 0 13 5 16 7 5 5 12 -7 21 -15 11 -15 13 -2 14 8 0 21 -6 29
-12 12 -11 12 -10 1 5 -15 19 -36 22 -46 7z"/>
<path d="M3430 2040 c-8 -5 -11 -12 -7 -16 4 -4 13 -2 19 4 15 15 7 24 -12 12z"/>
<path d="M3440 1989 c0 -5 5 -7 10 -4 6 3 10 8 10 11 0 2 -4 4 -10 4 -5 0 -10
-5 -10 -11z"/>
<path d="M3003 1923 c9 -2 25 -2 35 0 9 3 1 5 -18 5 -19 0 -27 -2 -17 -5z"/>
<path d="M3785 1891 c-4 -7 4 -9 23 -5 16 3 40 1 52 -6 18 -10 21 -9 18 2 -5
16 -83 24 -93 9z"/>
<path d="M6318 1823 c18 -2 45 -2 60 0 15 2 0 4 -33 4 -33 0 -45 -2 -27 -4z"/>
<path d="M6288 1583 c7 -3 16 -2 19 1 4 3 -2 6 -13 5 -11 0 -14 -3 -6 -6z"/>
<path d="M5024 1463 c3 -8 6 -17 6 -19 0 -2 8 -4 18 -4 11 0 27 -9 37 -20 10
-11 24 -20 32 -20 24 0 14 16 -22 33 -19 9 -35 21 -35 26 0 5 -9 11 -21 14
-15 4 -19 2 -15 -10z"/>
<path d="M5505 1390 c-3 -5 -1 -10 4 -10 6 0 11 5 11 10 0 6 -2 10 -4 10 -3 0
-8 -4 -11 -10z"/>
<path d="M5778 1373 c7 -3 16 -2 19 1 4 3 -2 6 -13 5 -11 0 -14 -3 -6 -6z"/>
<path d="M5723 1353 c9 -2 23 -2 30 0 6 3 -1 5 -18 5 -16 0 -22 -2 -12 -5z"/>
<path d="M5380 1330 c8 -5 20 -10 25 -10 6 0 3 5 -5 10 -8 5 -19 10 -25 10 -5
0 -3 -5 5 -10z"/>
<path d="M5632 1314 c5 -4 134 -17 190 -18 14 -1 24 -5 21 -9 -6 -9 48 2 61
13 4 5 0 10 -10 13 -24 6 -268 7 -262 1z"/>
<path d="M5560 1300 c0 -5 9 -10 20 -10 11 0 20 5 20 10 0 6 -9 10 -20 10 -11
0 -20 -4 -20 -10z"/>
<path d="M5944 1276 c5 -15 2 -17 -18 -12 -13 3 -32 9 -41 13 -12 4 -16 2 -13
-8 3 -9 24 -14 69 -15 36 -1 74 -4 85 -8 14 -4 26 -1 34 9 7 8 9 15 4 16 -5 0
-19 2 -31 3 -12 1 -20 -1 -17 -6 3 -4 -6 -4 -19 1 -14 6 -28 7 -32 3 -3 -3
-11 0 -16 8 -9 12 -10 11 -5 -4z"/>
<path d="M5755 1270 c-7 -11 9 -11 45 0 24 8 24 8 -7 9 -17 1 -35 -3 -38 -9z"/>
<path d="M3390 1156 c0 -36 4 -66 9 -66 5 0 7 9 4 20 -3 12 1 22 11 26 21 8
20 21 -1 27 -10 3 -4 5 13 6 18 0 34 7 38 16 3 8 11 15 17 15 9 0 9 -3 0 -14
-8 -10 -8 -16 3 -25 10 -9 16 -8 25 3 9 11 9 16 0 21 -8 6 -7 10 2 16 9 6 -2
9 -31 9 -25 0 -55 3 -67 6 -22 6 -23 4 -23 -60z"/>
<path d="M3530 1200 c0 -5 7 -10 15 -10 8 0 15 5 15 10 0 6 -7 10 -15 10 -8 0
-15 -4 -15 -10z"/>
<path d="M3705 1180 c-55 -10 -115 -15 -132 -13 -29 5 -33 3 -33 -16 0 -17 5
-21 18 -17 95 28 302 58 302 44 0 -4 -13 -8 -30 -8 -16 0 -30 -4 -30 -10 0 -5
5 -10 11 -10 7 0 9 -12 5 -32 -3 -18 -15 -104 -26 -191 -22 -174 -41 -226
-104 -289 -20 -20 -36 -42 -35 -49 0 -11 2 -11 6 -1 2 6 8 10 13 7 4 -2 18 11
31 30 13 18 33 38 45 44 27 12 57 88 91 231 14 58 31 117 38 132 14 29 3 50
-21 41 -8 -3 -14 0 -14 6 0 6 7 11 16 11 10 0 14 6 11 15 -5 11 -1 12 17 5 14
-5 27 -5 33 1 10 10 24 6 415 -110 219 -65 233 -68 244 -49 5 7 0 9 -14 6 -20
-6 -148 31 -488 137 -61 19 -121 35 -132 35 -14 0 -20 5 -16 14 3 7 15 13 27
12 12 -1 25 2 28 6 3 5 29 11 57 15 95 11 42 23 -96 22 -82 -1 -177 -8 -237
-19z"/>
<path d="M4136 1177 c3 -10 9 -15 12 -12 3 3 0 11 -7 18 -10 9 -11 8 -5 -6z"/>
<path d="M4166 1175 c4 -10 10 -12 18 -6 6 5 22 11 36 14 16 3 11 5 -17 6 -34
1 -41 -2 -37 -14z"/>
<path d="M4405 1180 c3 -5 8 -10 11 -10 2 0 4 5 4 10 0 6 -5 10 -11 10 -5 0
-7 -4 -4 -10z"/>
<path d="M4120 1140 c0 -5 5 -10 11 -10 5 0 7 5 4 10 -3 6 -8 10 -11 10 -2 0
-4 -4 -4 -10z"/>
<path d="M3414 1119 c-10 -17 23 -46 37 -32 7 7 9 19 6 27 -7 18 -33 21 -43 5z
m31 -9 c3 -5 1 -10 -4 -10 -6 0 -11 5 -11 10 0 6 2 10 4 10 3 0 8 -4 11 -10z"/>
<path d="M3555 1121 c-3 -5 -1 -12 4 -15 12 -8 41 3 41 15 0 12 -37 12 -45 0z"/>
<path d="M4150 1110 c8 -5 24 -10 34 -10 26 0 18 6 -19 14 -22 5 -26 4 -15 -4z"/>
<path d="M4265 1110 c19 -8 73 -14 64 -6 -2 2 -22 6 -44 9 -28 5 -34 4 -20 -3z"/>
<path d="M3880 1090 c0 -5 5 -10 10 -10 6 0 10 5 10 10 0 6 -4 10 -10 10 -5 0
-10 -4 -10 -10z"/>
<path d="M4240 1090 c8 -5 22 -9 30 -9 10 0 8 3 -5 9 -27 12 -43 12 -25 0z"/>
<path d="M4328 1065 c23 -8 64 -16 90 -19 37 -4 32 -1 -28 14 -85 22 -127 25
-62 5z"/>
<path d="M4465 1065 c22 -8 49 -14 60 -14 11 -1 33 -10 49 -20 17 -11 33 -18
38 -15 4 3 12 -6 18 -20 5 -14 12 -26 15 -26 4 0 5 3 3 8 -23 48 -35 64 -57
78 l-26 17 19 -21 c25 -28 18 -28 -35 3 -28 16 -58 24 -84 24 l-40 -1 40 -13z"/>
<path d="M1595 989 c-49 -10 -146 -23 -215 -29 -171 -16 -217 -22 -202 -27 19
-7 261 15 393 36 83 14 116 16 121 7 5 -6 8 -2 8 12 0 12 -3 21 -7 21 -5 -1
-48 -10 -98 -20z"/>
<path d="M4615 940 c-3 -5 -2 -10 4 -10 5 0 13 5 16 10 3 6 2 10 -4 10 -5 0
-13 -4 -16 -10z"/>
<path d="M3493 530 c-14 -21 -4 -33 16 -20 8 4 10 13 6 20 -6 10 -2 12 13 8
12 -4 20 -2 16 3 -9 16 -39 10 -51 -11z"/>
<path d="M3440 456 c0 -2 7 -9 15 -16 9 -7 15 -8 15 -2 0 5 -7 12 -15 16 -8 3
-15 4 -15 2z"/>
<path d="M4318 373 c7 -3 16 -2 19 1 4 3 -2 6 -13 5 -11 0 -14 -3 -6 -6z"/>
<path d="M4363 360 c-32 -13 -19 -40 18 -40 16 0 29 -4 29 -10 0 -5 -8 -10
-18 -10 -10 0 -27 -7 -38 -15 -18 -14 -17 -15 11 -9 17 4 37 10 46 15 9 5 19
6 22 3 3 -3 18 1 33 9 l27 14 -26 5 c-17 3 -24 1 -21 -6 3 -6 -6 4 -21 22 -29
35 -29 35 -62 22z"/>
<path d="M4013 353 c15 -2 37 -2 50 0 12 2 0 4 -28 4 -27 0 -38 -2 -22 -4z"/>
<path d="M5808 313 c12 -2 30 -2 40 0 9 3 -1 5 -23 4 -22 0 -30 -2 -17 -4z"/>
<path d="M5888 313 c6 -2 18 -2 25 0 6 3 1 5 -13 5 -14 0 -19 -2 -12 -5z"/>
<path d="M2093 292 c1 -15 7 -19 32 -17 16 2 32 4 35 5 12 7 36 5 41 -3 7 -10
59 2 59 14 0 5 -10 10 -22 13 -41 7 -78 4 -78 -6 0 -10 -17 -8 -52 7 -13 5
-17 2 -15 -13z"/>
<path d="M5718 283 c6 -2 18 -2 25 0 6 3 1 5 -13 5 -14 0 -19 -2 -12 -5z"/>
<path d="M2145 259 c-4 -5 13 -9 36 -9 48 0 48 9 0 15 -17 2 -33 -1 -36 -6z"/>
<path d="M2098 213 c6 -2 18 -2 25 0 6 3 1 5 -13 5 -14 0 -19 -2 -12 -5z"/>
</g>
</svg>
